<svg width="120" height="41" viewBox="0 0 120 41" fill="none" xmlns="http://www.w3.org/2000/svg">
<rect x="0.5" y="0.552002" width="119" height="39" rx="6.5" fill="#0C0D10"/>
<rect x="0.5" y="0.552002" width="119" height="39" rx="6.5" stroke="#A6A6A6"/>
<path d="M81.5267 19.2529V21.5439H80.0906V23.0463H81.5267V28.1513C81.5267 29.8945 82.3152 30.5917 84.2991 30.5917C84.6478 30.5917 84.9798 30.5502 85.2703 30.5004V29.0146C85.0213 29.0395 84.8636 29.0561 84.5896 29.0561C83.7015 29.0561 83.3113 28.641 83.3113 27.6948V23.0463H85.2703V21.5439H83.3113V19.2529H81.5267Z" fill="white"/>
<path d="M90.3242 30.7162C92.9638 30.7162 94.5825 28.9482 94.5825 26.018C94.5825 23.1044 92.9555 21.3281 90.3242 21.3281C87.6845 21.3281 86.0576 23.1044 86.0576 26.018C86.0576 28.9482 87.6762 30.7162 90.3242 30.7162ZM90.3242 29.1308C88.7719 29.1308 87.9003 27.9936 87.9003 26.018C87.9003 24.059 88.7719 22.9135 90.3242 22.9135C91.8681 22.9135 92.748 24.059 92.748 26.018C92.748 27.9853 91.8681 29.1308 90.3242 29.1308Z" fill="white"/>
<path d="M95.9674 30.5419H97.752V25.2045C97.752 23.9345 98.7066 23.0795 100.06 23.0795C100.375 23.0795 100.906 23.1376 101.056 23.1874V21.4277C100.865 21.3779 100.524 21.353 100.259 21.353C99.0802 21.353 98.0758 22.0004 97.8184 22.8886H97.6856V21.5024H95.9674V30.5419Z" fill="white"/>
<path d="M105.487 22.8471C106.807 22.8471 107.67 23.7685 107.712 25.1879H103.146C103.246 23.7768 104.167 22.8471 105.487 22.8471ZM107.703 28.1015C107.371 28.8071 106.633 29.1972 105.553 29.1972C104.126 29.1972 103.204 28.1928 103.146 26.6074V26.5077H109.53V25.8852C109.53 23.0463 108.01 21.3281 105.495 21.3281C102.947 21.3281 101.328 23.1625 101.328 26.0512C101.328 28.9399 102.914 30.7162 105.504 30.7162C107.571 30.7162 109.015 29.7201 109.422 28.1015H107.703Z" fill="white"/>
<path d="M69.8231 27.2038C69.9607 29.4235 71.8105 30.843 74.5636 30.843C77.506 30.843 79.3472 29.3546 79.3472 26.9801C79.3472 25.1131 78.2975 24.0807 75.7509 23.487L74.3829 23.1515C72.7655 22.7729 72.1116 22.2653 72.1116 21.3792C72.1116 20.2607 73.1268 19.5294 74.6497 19.5294C76.095 19.5294 77.093 20.2435 77.2737 21.3878H79.1493C79.0374 19.2971 77.1963 17.8259 74.6755 17.8259C71.9654 17.8259 70.1586 19.2971 70.1586 21.5082C70.1586 23.3322 71.1824 24.4162 73.4279 24.941L75.0282 25.3282C76.6715 25.7154 77.3942 26.2832 77.3942 27.2296C77.3942 28.3308 76.2585 29.1309 74.7099 29.1309C73.0494 29.1309 71.8965 28.3824 71.7331 27.2038H69.8231Z" fill="white"/>
<path d="M51.3357 21.353C50.1072 21.353 49.0447 21.9672 48.4969 22.9965H48.3641V21.5024H46.6458V33.5468H48.4305V29.1723H48.5716C49.0447 30.1269 50.0657 30.6913 51.3523 30.6913C53.6351 30.6913 55.0877 28.8901 55.0877 26.018C55.0877 23.1459 53.6351 21.353 51.3357 21.353ZM50.8294 29.0893C49.3353 29.0893 48.3973 27.9106 48.3973 26.0263C48.3973 24.1337 49.3353 22.955 50.8377 22.955C52.3484 22.955 53.2532 24.1088 53.2532 26.018C53.2532 27.9355 52.3484 29.0893 50.8294 29.0893Z" fill="white"/>
<path d="M61.3325 21.353C60.104 21.353 59.0415 21.9672 58.4937 22.9965H58.3609V21.5024H56.6426V33.5468H58.4273V29.1723H58.5684C59.0415 30.1269 60.0625 30.6913 61.3491 30.6913C63.6319 30.6913 65.0845 28.8901 65.0845 26.018C65.0845 23.1459 63.6319 21.353 61.3325 21.353ZM60.8262 29.0893C59.3321 29.0893 58.3941 27.9106 58.3941 26.0263C58.3941 24.1337 59.3321 22.955 60.8345 22.955C62.3452 22.955 63.25 24.1088 63.25 26.018C63.25 27.9355 62.3452 29.0893 60.8262 29.0893Z" fill="white"/>
<path d="M43.4438 30.5419H45.4914L41.009 18.1271H38.9356L34.4531 30.5419H36.4319L37.5762 27.2468H42.3081L43.4438 30.5419ZM39.8733 20.3812H40.0196L41.8177 25.6293H38.0666L39.8733 20.3812Z" fill="white"/>
<path d="M35.6504 8.76294V14.752H37.8127C39.5974 14.752 40.6309 13.6521 40.6309 11.7388C40.6309 9.85449 39.5891 8.76294 37.8127 8.76294H35.6504ZM36.5801 9.60962H37.709C38.95 9.60962 39.6846 10.3982 39.6846 11.7512C39.6846 13.125 38.9624 13.9053 37.709 13.9053H36.5801V9.60962Z" fill="white"/>
<path d="M43.7959 14.8391C45.1158 14.8391 45.9251 13.9551 45.9251 12.49C45.9251 11.0332 45.1116 10.145 43.7959 10.145C42.4761 10.145 41.6626 11.0332 41.6626 12.49C41.6626 13.9551 42.472 14.8391 43.7959 14.8391ZM43.7959 14.0464C43.0198 14.0464 42.584 13.4778 42.584 12.49C42.584 11.5105 43.0198 10.9377 43.7959 10.9377C44.5679 10.9377 45.0079 11.5105 45.0079 12.49C45.0079 13.4736 44.5679 14.0464 43.7959 14.0464Z" fill="white"/>
<path d="M52.8172 10.2322H51.9249L51.1197 13.6812H51.0492L50.1195 10.2322H49.2645L48.3348 13.6812H48.2684L47.4591 10.2322H46.5543L47.7994 14.752H48.7167L49.6463 11.4233H49.7169L50.6507 14.752H51.5763L52.8172 10.2322Z" fill="white"/>
<path d="M53.8449 14.752H54.7372V12.1082C54.7372 11.4026 55.1564 10.9626 55.8163 10.9626C56.4762 10.9626 56.7916 11.3237 56.7916 12.05V14.752H57.684V11.8259C57.684 10.751 57.1278 10.145 56.1193 10.145C55.4386 10.145 54.9904 10.448 54.7704 10.9502H54.704V10.2322H53.8449V14.752Z" fill="white"/>
<path d="M59.0893 14.752H59.9816V8.46826H59.0893V14.752Z" fill="white"/>
<path d="M63.3376 14.8391C64.6575 14.8391 65.4668 13.9551 65.4668 12.49C65.4668 11.0332 64.6533 10.145 63.3376 10.145C62.0178 10.145 61.2043 11.0332 61.2043 12.49C61.2043 13.9551 62.0137 14.8391 63.3376 14.8391ZM63.3376 14.0464C62.5615 14.0464 62.1257 13.4778 62.1257 12.49C62.1257 11.5105 62.5615 10.9377 63.3376 10.9377C64.1096 10.9377 64.5496 11.5105 64.5496 12.49C64.5496 13.4736 64.1096 14.0464 63.3376 14.0464Z" fill="white"/>
<path d="M68.1255 14.0754C67.6399 14.0754 67.2872 13.8389 67.2872 13.4321C67.2872 13.0337 67.5694 12.822 68.1919 12.7805L69.2959 12.71V13.0876C69.2959 13.6479 68.7979 14.0754 68.1255 14.0754ZM67.8973 14.8267C68.4908 14.8267 68.9847 14.5693 69.2544 14.1169H69.325V14.752H70.1841V11.6641C70.1841 10.7095 69.545 10.145 68.4119 10.145C67.3868 10.145 66.6563 10.6431 66.565 11.4192H67.4283C67.5279 11.0996 67.8724 10.917 68.3704 10.917C68.9805 10.917 69.2959 11.1868 69.2959 11.6641V12.0542L68.0716 12.1248C66.9966 12.1912 66.3907 12.6602 66.3907 13.4736C66.3907 14.2996 67.0257 14.8267 67.8973 14.8267Z" fill="white"/>
<path d="M73.2123 14.8267C73.8348 14.8267 74.3619 14.532 74.6317 14.0381H74.7022V14.752H75.5572V8.46826H74.6649V10.9502H74.5985C74.3536 10.4521 73.8307 10.1575 73.2123 10.1575C72.0709 10.1575 71.3363 11.0623 71.3363 12.49C71.3363 13.9219 72.0626 14.8267 73.2123 14.8267ZM73.4654 10.9585C74.2125 10.9585 74.6815 11.552 74.6815 12.4941C74.6815 13.4404 74.2166 14.0256 73.4654 14.0256C72.7101 14.0256 72.2577 13.4487 72.2577 12.49C72.2577 11.5396 72.7142 10.9585 73.4654 10.9585Z" fill="white"/>
<path d="M81.3437 14.8391C82.6635 14.8391 83.4729 13.9551 83.4729 12.49C83.4729 11.0332 82.6594 10.145 81.3437 10.145C80.0239 10.145 79.2104 11.0332 79.2104 12.49C79.2104 13.9551 80.0197 14.8391 81.3437 14.8391ZM81.3437 14.0464C80.5676 14.0464 80.1318 13.4778 80.1318 12.49C80.1318 11.5105 80.5676 10.9377 81.3437 10.9377C82.1157 10.9377 82.5556 11.5105 82.5556 12.49C82.5556 13.4736 82.1157 14.0464 81.3437 14.0464Z" fill="white"/>
<path d="M84.6541 14.752H85.5464V12.1082C85.5464 11.4026 85.9656 10.9626 86.6255 10.9626C87.2854 10.9626 87.6008 11.3237 87.6008 12.05V14.752H88.4932V11.8259C88.4932 10.751 87.937 10.145 86.9285 10.145C86.2478 10.145 85.7996 10.448 85.5796 10.9502H85.5132V10.2322H84.6541V14.752Z" fill="white"/>
<path d="M92.6029 9.10742V10.2529H91.8849V11.0042H92.6029V13.5566C92.6029 14.4282 92.9972 14.7769 93.9891 14.7769C94.1634 14.7769 94.3294 14.7561 94.4747 14.7312V13.9883C94.3502 14.0007 94.2713 14.009 94.1344 14.009C93.6903 14.009 93.4952 13.8015 93.4952 13.3284V11.0042H94.4747V10.2529H93.4952V9.10742H92.6029Z" fill="white"/>
<path d="M95.6725 14.752H96.5648V12.1123C96.5648 11.4275 96.9716 10.9668 97.702 10.9668C98.3329 10.9668 98.6691 11.332 98.6691 12.0542V14.752H99.5614V11.8342C99.5614 10.7593 98.9679 10.1492 98.005 10.1492C97.3244 10.1492 96.8471 10.4521 96.6271 10.9585H96.5565V8.46826H95.6725V14.752Z" fill="white"/>
<path d="M102.78 10.9045C103.44 10.9045 103.872 11.3652 103.893 12.075H101.61C101.66 11.3694 102.121 10.9045 102.78 10.9045ZM103.889 13.5317C103.723 13.8845 103.353 14.0796 102.814 14.0796C102.1 14.0796 101.639 13.5774 101.61 12.7847V12.7349H104.802V12.4236C104.802 11.0042 104.042 10.145 102.785 10.145C101.51 10.145 100.701 11.0623 100.701 12.5066C100.701 13.9509 101.494 14.8391 102.789 14.8391C103.822 14.8391 104.544 14.3411 104.748 13.5317H103.889Z" fill="white"/>
<path d="M24.77 20.3528C24.7916 18.6718 25.6944 17.0812 27.1265 16.2008C26.2231 14.9104 24.7098 14.0923 23.1354 14.0431C21.4561 13.8668 19.8282 15.0479 18.9725 15.0479C18.1002 15.0479 16.7827 14.0606 15.364 14.0898C13.5147 14.1495 11.7907 15.2009 10.891 16.8176C8.95705 20.1661 10.3996 25.0871 12.2522 27.7937C13.1791 29.1191 14.2624 30.5995 15.6799 30.547C17.0669 30.4895 17.585 29.6625 19.2593 29.6625C20.918 29.6625 21.4041 30.547 22.8503 30.5136C24.3387 30.4895 25.2764 29.1824 26.1708 27.8445C26.8368 26.9001 27.3492 25.8564 27.6892 24.752C25.9401 24.0122 24.772 22.252 24.77 20.3528Z" fill="white"/>
<path d="M22.0383 12.2631C22.8498 11.2889 23.2496 10.0367 23.1528 8.77246C21.913 8.90268 20.7677 9.49524 19.9452 10.4321C19.141 11.3474 18.7224 12.5775 18.8015 13.7935C20.0418 13.8062 21.2611 13.2297 22.0383 12.2631Z" fill="white"/>
</svg>
