<svg width="135" height="50" viewBox="0 0 135 41" fill="none" xmlns="http://www.w3.org/2000/svg">
<rect x="0.5" y="0.552002" width="134" height="39" rx="4.5" fill="black"/>
<rect x="0.5" y="0.552002" width="134" height="39" rx="4.5" stroke="#A6A6A6"/>
<path d="M68.137 21.8031C65.785 21.8031 63.868 23.5921 63.868 26.0561C63.868 28.5051 65.785 30.3091 68.137 30.3091C70.49 30.3091 72.407 28.5051 72.407 26.0561C72.406 23.5921 70.489 21.8031 68.137 21.8031ZM68.137 28.6351C66.848 28.6351 65.737 27.5721 65.737 26.0571C65.737 24.5261 66.849 23.4791 68.137 23.4791C69.426 23.4791 70.537 24.5261 70.537 26.0571C70.537 27.5711 69.426 28.6351 68.137 28.6351ZM58.823 21.8031C56.471 21.8031 54.554 23.5921 54.554 26.0561C54.554 28.5051 56.471 30.3091 58.823 30.3091C61.176 30.3091 63.093 28.5051 63.093 26.0561C63.093 23.5921 61.176 21.8031 58.823 21.8031ZM58.823 28.6351C57.534 28.6351 56.423 27.5721 56.423 26.0571C56.423 24.5261 57.535 23.4791 58.823 23.4791C60.112 23.4791 61.223 24.5261 61.223 26.0571C61.224 27.5711 60.112 28.6351 58.823 28.6351ZM47.745 23.1091V24.9131H52.063C51.934 25.9281 51.596 26.6691 51.08 27.1841C50.452 27.8121 49.469 28.5051 47.745 28.5051C45.087 28.5051 43.009 26.3621 43.009 23.7041C43.009 21.0461 45.087 18.9031 47.745 18.9031C49.179 18.9031 50.226 19.4671 50.999 20.1921L52.272 18.9191C51.192 17.8881 49.759 17.0991 47.745 17.0991C44.104 17.0991 41.043 20.0631 41.043 23.7041C41.043 27.3451 44.104 30.3091 47.745 30.3091C49.71 30.3091 51.193 29.6641 52.352 28.4561C53.544 27.2641 53.915 25.5881 53.915 24.2351C53.915 23.8171 53.883 23.4301 53.818 23.1081H47.745V23.1091ZM93.053 24.5101C92.699 23.5601 91.619 21.8031 89.412 21.8031C87.221 21.8031 85.4 23.5271 85.4 26.0561C85.4 28.4401 87.205 30.3091 89.621 30.3091C91.57 30.3091 92.698 29.1171 93.166 28.4241L91.716 27.4571C91.233 28.1661 90.572 28.6331 89.621 28.6331C88.671 28.6331 87.994 28.1981 87.559 27.3441L93.246 24.9921L93.053 24.5101ZM87.253 25.9281C87.205 24.2841 88.526 23.4471 89.477 23.4471C90.218 23.4471 90.846 23.8181 91.056 24.3491L87.253 25.9281ZM82.63 30.0521H84.498V17.5511H82.63V30.0521ZM79.568 22.7541H79.504C79.085 22.2541 78.279 21.8031 77.265 21.8031C75.138 21.8031 73.189 23.6721 73.189 26.0731C73.189 28.4571 75.138 30.3101 77.265 30.3101C78.28 30.3101 79.085 29.8591 79.504 29.3441H79.568V29.9561C79.568 31.5831 78.698 32.4531 77.297 32.4531C76.153 32.4531 75.444 31.6321 75.154 30.9391L73.527 31.6161C73.994 32.7431 75.234 34.1291 77.297 34.1291C79.488 34.1291 81.341 32.8401 81.341 29.6981V22.0621H79.569V22.7541H79.568ZM77.426 28.6351C76.137 28.6351 75.058 27.5551 75.058 26.0731C75.058 24.5741 76.137 23.4791 77.426 23.4791C78.698 23.4791 79.697 24.5741 79.697 26.0731C79.697 27.5551 78.698 28.6351 77.426 28.6351ZM101.807 17.5511H97.336V30.0521H99.201V25.3161H101.806C103.874 25.3161 105.908 23.8191 105.908 21.4341C105.908 19.0491 103.875 17.5511 101.807 17.5511ZM101.855 23.5761H99.201V19.2911H101.855C103.25 19.2911 104.042 20.4461 104.042 21.4341C104.042 22.4021 103.25 23.5761 101.855 23.5761ZM113.387 21.7811C112.036 21.7811 110.637 22.3761 110.058 23.6951L111.714 24.3861C112.068 23.6951 112.728 23.4691 113.419 23.4691C114.384 23.4691 115.365 24.0481 115.381 25.0771V25.2061C115.043 25.0131 114.319 24.7241 113.435 24.7241C111.65 24.7241 109.832 25.7051 109.832 27.5381C109.832 29.2111 111.296 30.2881 112.936 30.2881C114.19 30.2881 114.882 29.7251 115.316 29.0651H115.38V30.0301H117.182V25.2371C117.183 23.0191 115.525 21.7811 113.387 21.7811ZM113.161 28.6321C112.551 28.6321 111.698 28.3261 111.698 27.5701C111.698 26.6051 112.76 26.2351 113.677 26.2351C114.496 26.2351 114.883 26.4121 115.381 26.6531C115.236 27.8121 114.239 28.6321 113.161 28.6321ZM123.744 22.0541L121.605 27.4741H121.541L119.321 22.0541H117.311L120.64 29.6291L118.742 33.8431H120.688L125.819 22.0541H123.744ZM106.938 30.0521H108.803V17.5511H106.938V30.0521Z" fill="white"/>
<path d="M47.4176 10.2949C47.4176 11.1329 47.1696 11.7999 46.6726 12.2979C46.1086 12.8899 45.3726 13.1859 44.4686 13.1859C43.6026 13.1859 42.8656 12.8859 42.2606 12.2859C41.6546 11.6849 41.3516 10.9409 41.3516 10.0529C41.3516 9.16394 41.6546 8.41995 42.2606 7.81995C42.8656 7.21895 43.6026 6.91895 44.4686 6.91895C44.8986 6.91895 45.3096 7.00295 45.6996 7.16995C46.0906 7.33795 46.4036 7.56095 46.6376 7.83995L46.1106 8.36795C45.7136 7.89295 45.1666 7.65595 44.4676 7.65595C43.8356 7.65595 43.2896 7.87795 42.8286 8.32195C42.3676 8.76595 42.1376 9.34295 42.1376 10.0519C42.1376 10.7609 42.3676 11.3379 42.8286 11.7819C43.2896 12.2259 43.8356 12.4479 44.4676 12.4479C45.1376 12.4479 45.6966 12.2249 46.1436 11.7779C46.4336 11.4869 46.6016 11.0819 46.6466 10.5629H44.4676V9.84195H47.3746C47.4046 9.99895 47.4176 10.1499 47.4176 10.2949Z" fill="white"/>
<path d="M52.0277 7.789H49.2957V9.691H51.7597V10.412H49.2957V12.314H52.0277V13.052H48.5247V7.052H52.0277V7.789Z" fill="white"/>
<path d="M55.2785 13.052H54.5075V7.789H52.8315V7.052H56.9545V7.789H55.2785V13.052Z" fill="white"/>
<path d="M59.9375 13.052V7.052H60.7085V13.052H59.9375Z" fill="white"/>
<path d="M64.1277 13.052H63.3567V7.789H61.6807V7.052H65.8037V7.789H64.1277V13.052Z" fill="white"/>
<path d="M73.6084 12.277C73.0184 12.883 72.2854 13.186 71.4084 13.186C70.5314 13.186 69.7984 12.883 69.2094 12.277C68.6194 11.671 68.3254 10.929 68.3254 10.052C68.3254 9.17499 68.6194 8.43299 69.2094 7.82699C69.7984 7.22099 70.5314 6.91699 71.4084 6.91699C72.2804 6.91699 73.0124 7.22199 73.6044 7.83099C74.1964 8.43999 74.4924 9.17999 74.4924 10.052C74.4924 10.929 74.1974 11.671 73.6084 12.277ZM69.7784 11.774C70.2224 12.224 70.7654 12.448 71.4084 12.448C72.0514 12.448 72.5954 12.223 73.0384 11.774C73.4824 11.324 73.7054 10.75 73.7054 10.052C73.7054 9.35399 73.4824 8.77999 73.0384 8.32999C72.5954 7.87999 72.0514 7.65599 71.4084 7.65599C70.7654 7.65599 70.2224 7.88099 69.7784 8.32999C69.3354 8.77999 69.1124 9.35399 69.1124 10.052C69.1124 10.75 69.3354 11.324 69.7784 11.774Z" fill="white"/>
<path d="M75.5745 13.052V7.052H76.5125L79.4285 11.719H79.4615L79.4285 10.563V7.052H80.1995V13.052H79.3945L76.3435 8.158H76.3105L76.3435 9.314V13.052H75.5745Z" fill="white"/>
<path d="M47.4176 10.2949C47.4176 11.1329 47.1696 11.7999 46.6726 12.2979C46.1086 12.8899 45.3726 13.1859 44.4686 13.1859C43.6026 13.1859 42.8656 12.8859 42.2606 12.2859C41.6546 11.6849 41.3516 10.9409 41.3516 10.0529C41.3516 9.16394 41.6546 8.41995 42.2606 7.81995C42.8656 7.21895 43.6026 6.91895 44.4686 6.91895C44.8986 6.91895 45.3096 7.00295 45.6996 7.16995C46.0906 7.33795 46.4036 7.56095 46.6376 7.83995L46.1106 8.36795C45.7136 7.89295 45.1666 7.65595 44.4676 7.65595C43.8356 7.65595 43.2896 7.87795 42.8286 8.32195C42.3676 8.76595 42.1376 9.34295 42.1376 10.0519C42.1376 10.7609 42.3676 11.3379 42.8286 11.7819C43.2896 12.2259 43.8356 12.4479 44.4676 12.4479C45.1376 12.4479 45.6966 12.2249 46.1436 11.7779C46.4336 11.4869 46.6016 11.0819 46.6466 10.5629H44.4676V9.84195H47.3746C47.4046 9.99895 47.4176 10.1499 47.4176 10.2949Z" stroke="white" stroke-width="0.2" stroke-miterlimit="10"/>
<path d="M52.0277 7.789H49.2957V9.691H51.7597V10.412H49.2957V12.314H52.0277V13.052H48.5247V7.052H52.0277V7.789Z" stroke="white" stroke-width="0.2" stroke-miterlimit="10"/>
<path d="M55.2785 13.052H54.5075V7.789H52.8315V7.052H56.9545V7.789H55.2785V13.052Z" stroke="white" stroke-width="0.2" stroke-miterlimit="10"/>
<path d="M59.9375 13.052V7.052H60.7085V13.052H59.9375Z" stroke="white" stroke-width="0.2" stroke-miterlimit="10"/>
<path d="M64.1277 13.052H63.3567V7.789H61.6807V7.052H65.8037V7.789H64.1277V13.052Z" stroke="white" stroke-width="0.2" stroke-miterlimit="10"/>
<path d="M73.6084 12.277C73.0184 12.883 72.2854 13.186 71.4084 13.186C70.5314 13.186 69.7984 12.883 69.2094 12.277C68.6194 11.671 68.3254 10.929 68.3254 10.052C68.3254 9.17499 68.6194 8.43299 69.2094 7.82699C69.7984 7.22099 70.5314 6.91699 71.4084 6.91699C72.2804 6.91699 73.0124 7.22199 73.6044 7.83099C74.1964 8.43999 74.4924 9.17999 74.4924 10.052C74.4924 10.929 74.1974 11.671 73.6084 12.277ZM69.7784 11.774C70.2224 12.224 70.7654 12.448 71.4084 12.448C72.0514 12.448 72.5954 12.223 73.0384 11.774C73.4824 11.324 73.7054 10.75 73.7054 10.052C73.7054 9.35399 73.4824 8.77999 73.0384 8.32999C72.5954 7.87999 72.0514 7.65599 71.4084 7.65599C70.7654 7.65599 70.2224 7.88099 69.7784 8.32999C69.3354 8.77999 69.1124 9.35399 69.1124 10.052C69.1124 10.75 69.3354 11.324 69.7784 11.774Z" stroke="white" stroke-width="0.2" stroke-miterlimit="10"/>
<path d="M75.5745 13.052V7.052H76.5125L79.4285 11.719H79.4615L79.4285 10.563V7.052H80.1995V13.052H79.3945L76.3435 8.158H76.3105L76.3435 9.314V13.052H75.5745Z" stroke="white" stroke-width="0.2" stroke-miterlimit="10"/>
<g filter="url(#filter0_ii_605_5325)">
<path d="M10.4357 7.58985C10.1447 7.89785 9.97266 8.37585 9.97266 8.99485V31.1108C9.97266 31.7308 10.1447 32.2078 10.4357 32.5158L10.5097 32.5878L22.8987 20.1988V20.0528V19.9068L10.5097 7.51685L10.4357 7.58985Z" fill="url(#paint0_linear_605_5325)"/>
<path d="M27.0274 24.3299L22.8984 20.1989V20.0529V19.9069L27.0284 15.7769L27.1214 15.8299L32.0144 18.6099C33.4114 19.4039 33.4114 20.7029 32.0144 21.4979L27.1214 24.2779L27.0274 24.3299Z" fill="url(#paint1_linear_605_5325)"/>
<g filter="url(#filter1_i_605_5325)">
<path d="M27.1215 24.277L22.8975 20.053L10.4355 32.516C10.8955 33.004 11.6565 33.064 12.5135 32.578L27.1215 24.277Z" fill="url(#paint2_linear_605_5325)"/>
</g>
<path d="M27.1215 15.8289L12.5135 7.52895C11.6565 7.04195 10.8955 7.10295 10.4355 7.59095L22.8985 20.0539L27.1215 15.8289Z" fill="url(#paint3_linear_605_5325)"/>
</g>
<defs>
<filter id="filter0_ii_605_5325" x="9.97266" y="7.19287" width="23.0898" height="25.7207" filterUnits="userSpaceOnUse" color-interpolation-filters="sRGB">
<feFlood flood-opacity="0" result="BackgroundImageFix"/>
<feBlend mode="normal" in="SourceGraphic" in2="BackgroundImageFix" result="shape"/>
<feColorMatrix in="SourceAlpha" type="matrix" values="0 0 0 0 0 0 0 0 0 0 0 0 0 0 0 0 0 0 127 0" result="hardAlpha"/>
<feOffset dy="-0.15"/>
<feComposite in2="hardAlpha" operator="arithmetic" k2="-1" k3="1"/>
<feColorMatrix type="matrix" values="0 0 0 0 0 0 0 0 0 0 0 0 0 0 0 0 0 0 0.12 0"/>
<feBlend mode="normal" in2="shape" result="effect1_innerShadow_605_5325"/>
<feColorMatrix in="SourceAlpha" type="matrix" values="0 0 0 0 0 0 0 0 0 0 0 0 0 0 0 0 0 0 127 0" result="hardAlpha"/>
<feOffset dy="0.15"/>
<feComposite in2="hardAlpha" operator="arithmetic" k2="-1" k3="1"/>
<feColorMatrix type="matrix" values="0 0 0 0 1 0 0 0 0 1 0 0 0 0 1 0 0 0 0.25 0"/>
<feBlend mode="normal" in2="effect1_innerShadow_605_5325" result="effect2_innerShadow_605_5325"/>
</filter>
<filter id="filter1_i_605_5325" x="10.4355" y="20.053" width="16.6855" height="12.8606" filterUnits="userSpaceOnUse" color-interpolation-filters="sRGB">
<feFlood flood-opacity="0" result="BackgroundImageFix"/>
<feBlend mode="normal" in="SourceGraphic" in2="BackgroundImageFix" result="shape"/>
<feColorMatrix in="SourceAlpha" type="matrix" values="0 0 0 0 0 0 0 0 0 0 0 0 0 0 0 0 0 0 127 0" result="hardAlpha"/>
<feOffset dy="-0.15"/>
<feComposite in2="hardAlpha" operator="arithmetic" k2="-1" k3="1"/>
<feColorMatrix type="matrix" values="0 0 0 0 0 0 0 0 0 0 0 0 0 0 0 0 0 0 0.08 0"/>
<feBlend mode="normal" in2="shape" result="effect1_innerShadow_605_5325"/>
</filter>
<linearGradient id="paint0_linear_605_5325" x1="21.8005" y1="8.76085" x2="5.01846" y2="25.5428" gradientUnits="userSpaceOnUse">
<stop stop-color="#00A0FF"/>
<stop offset="0.0066" stop-color="#00A1FF"/>
<stop offset="0.2601" stop-color="#00BEFF"/>
<stop offset="0.5122" stop-color="#00D2FF"/>
<stop offset="0.7604" stop-color="#00DFFF"/>
<stop offset="1" stop-color="#00E3FF"/>
</linearGradient>
<linearGradient id="paint1_linear_605_5325" x1="33.8329" y1="20.0529" x2="9.63704" y2="20.0529" gradientUnits="userSpaceOnUse">
<stop stop-color="#FFE000"/>
<stop offset="0.4087" stop-color="#FFBD00"/>
<stop offset="0.7754" stop-color="#FFA500"/>
<stop offset="1" stop-color="#FF9C00"/>
</linearGradient>
<linearGradient id="paint2_linear_605_5325" x1="24.8276" y1="22.3469" x2="2.06915" y2="45.1054" gradientUnits="userSpaceOnUse">
<stop stop-color="#FF3A44"/>
<stop offset="1" stop-color="#C31162"/>
</linearGradient>
<linearGradient id="paint3_linear_605_5325" x1="7.29695" y1="0.228747" x2="17.4592" y2="10.391" gradientUnits="userSpaceOnUse">
<stop stop-color="#32A071"/>
<stop offset="0.0685" stop-color="#2DA771"/>
<stop offset="0.4762" stop-color="#15CF74"/>
<stop offset="0.8009" stop-color="#06E775"/>
<stop offset="1" stop-color="#00F076"/>
</linearGradient>
</defs>
</svg>
