<svg width="22" height="23" viewBox="0 0 22 23" fill="none" xmlns="http://www.w3.org/2000/svg">
<path d="M16.8438 0.969482H5.15625C2.30853 0.969482 0 3.27801 0 6.12573V17.8132C0 20.6609 2.30853 22.9695 5.15625 22.9695H16.8438C19.6915 22.9695 22 20.6609 22 17.8132V6.12573C22 3.27801 19.6915 0.969482 16.8438 0.969482Z" fill="url(#paint0_radial_605_5345)"/>
<path d="M16.8438 0.969482H5.15625C2.30853 0.969482 0 3.27801 0 6.12573V17.8132C0 20.6609 2.30853 22.9695 5.15625 22.9695H16.8438C19.6915 22.9695 22 20.6609 22 17.8132V6.12573C22 3.27801 19.6915 0.969482 16.8438 0.969482Z" fill="url(#paint1_radial_605_5345)"/>
<path d="M11.0008 3.37573C8.66688 3.37573 8.37392 3.38596 7.45731 3.42764C6.54242 3.46958 5.91791 3.61438 5.37152 3.8269C4.80623 4.04639 4.32678 4.34004 3.84914 4.81785C3.37107 5.29558 3.07742 5.77502 2.85725 6.34006C2.64413 6.88662 2.49915 7.51139 2.45798 8.42585C2.41699 9.34255 2.40625 9.63559 2.40625 11.9696C2.40625 14.3035 2.41656 14.5956 2.45816 15.5122C2.50027 16.4271 2.64507 17.0516 2.85742 17.598C3.07708 18.1633 3.37073 18.6427 3.84854 19.1203C4.32609 19.5984 4.80554 19.8927 5.37041 20.1122C5.91723 20.3248 6.54182 20.4696 7.45654 20.5115C8.37323 20.5532 8.66594 20.5634 10.9997 20.5634C13.3339 20.5634 13.6259 20.5532 14.5425 20.5115C15.4574 20.4696 16.0826 20.3248 16.6294 20.1122C17.1945 19.8927 17.6732 19.5984 18.1507 19.1203C18.6288 18.6427 18.9223 18.1633 19.1426 17.5982C19.3538 17.0516 19.4989 16.4269 19.5418 15.5123C19.583 14.5957 19.5938 14.3035 19.5938 11.9696C19.5938 9.63559 19.583 9.34272 19.5418 8.42602C19.4989 7.51113 19.3538 6.88671 19.1426 6.34032C18.9223 5.77502 18.6288 5.29558 18.1507 4.81785C17.6727 4.33987 17.1946 4.04622 16.6289 3.82699C16.0811 3.61438 15.4562 3.46949 14.5413 3.42764C13.6246 3.38596 13.3328 3.37573 10.9981 3.37573H11.0008ZM10.2298 4.92441C10.4587 4.92407 10.714 4.92441 11.0008 4.92441C13.2954 4.92441 13.5673 4.93266 14.4734 4.97383C15.3113 5.01215 15.7661 5.15215 16.069 5.26979C16.4701 5.42551 16.756 5.61174 17.0566 5.91261C17.3574 6.21339 17.5435 6.49982 17.6997 6.90089C17.8173 7.20339 17.9575 7.65817 17.9957 8.49606C18.0368 9.40201 18.0458 9.67409 18.0458 11.9676C18.0458 14.2611 18.0368 14.5333 17.9957 15.4391C17.9573 16.277 17.8173 16.7318 17.6997 17.0344C17.544 17.4355 17.3574 17.721 17.0566 18.0216C16.7558 18.3224 16.4703 18.5086 16.069 18.6644C15.7664 18.7825 15.3113 18.9222 14.4734 18.9605C13.5675 19.0017 13.2954 19.0106 11.0008 19.0106C8.70607 19.0106 8.43408 19.0017 7.52821 18.9605C6.69032 18.9218 6.23554 18.7818 5.93235 18.6642C5.53137 18.5084 5.24485 18.3222 4.94407 18.0215C4.64329 17.7207 4.45715 17.4349 4.301 17.0337C4.18335 16.7311 4.04319 16.2763 4.00503 15.4384C3.96387 14.5325 3.95562 14.2604 3.95562 11.9654C3.95562 9.67057 3.96387 9.39987 4.00503 8.49391C4.04336 7.65602 4.18335 7.20124 4.301 6.89831C4.4568 6.49724 4.64329 6.21081 4.94416 5.91003C5.24494 5.60925 5.53137 5.42302 5.93244 5.26696C6.23537 5.14879 6.69032 5.00915 7.52821 4.97065C8.32098 4.93481 8.62821 4.92407 10.2298 4.92226V4.92441ZM15.5881 6.35132C15.0188 6.35132 14.5569 6.8128 14.5569 7.38223C14.5569 7.95156 15.0188 8.41348 15.5881 8.41348C16.1575 8.41348 16.6194 7.95156 16.6194 7.38223C16.6194 6.81289 16.1575 6.35097 15.5881 6.35097V6.35132ZM11.0008 7.55625C8.56359 7.55625 6.58754 9.5323 6.58754 11.9696C6.58754 14.4068 8.56359 16.3819 11.0008 16.3819C13.438 16.3819 15.4134 14.4068 15.4134 11.9696C15.4134 9.53238 13.4379 7.55625 11.0006 7.55625H11.0008ZM11.0008 9.10493C12.5828 9.10493 13.8654 10.3874 13.8654 11.9696C13.8654 13.5516 12.5828 14.8342 11.0008 14.8342C9.41866 14.8342 8.13622 13.5516 8.13622 11.9696C8.13622 10.3874 9.41866 9.10493 11.0008 9.10493Z" fill="white"/>
<defs>
<radialGradient id="paint0_radial_605_5345" cx="0" cy="0" r="1" gradientUnits="userSpaceOnUse" gradientTransform="translate(5.84375 24.6639) rotate(-90) scale(21.8036 20.2791)">
<stop stop-color="#FFDD55"/>
<stop offset="0.1" stop-color="#FFDD55"/>
<stop offset="0.5" stop-color="#FF543E"/>
<stop offset="1" stop-color="#C837AB"/>
</radialGradient>
<radialGradient id="paint1_radial_605_5345" cx="0" cy="0" r="1" gradientUnits="userSpaceOnUse" gradientTransform="translate(-3.68509 2.55426) rotate(78.681) scale(9.74634 40.1747)">
<stop stop-color="#3771C8"/>
<stop offset="0.128" stop-color="#3771C8"/>
<stop offset="1" stop-color="#6600FF" stop-opacity="0"/>
</radialGradient>
</defs>
</svg>
