<svg width="23" height="26" viewBox="0 0 23 26" fill="none" xmlns="http://www.w3.org/2000/svg">
<g clip-path="url(#clip0_605_5358)">
<path d="M16.3552 9.97086C17.9653 11.1213 19.9379 11.7982 22.0683 11.7982V7.70078C21.6651 7.70086 21.263 7.65879 20.8685 7.57526V10.8005C18.7383 10.8005 16.7659 10.1237 15.1554 8.97336V17.3351C15.1554 21.5181 11.7627 24.9088 7.57782 24.9088C6.01636 24.9088 4.56498 24.437 3.35938 23.6278C4.73541 25.0341 6.65438 25.9064 8.77731 25.9064C12.9625 25.9064 16.3553 22.5157 16.3553 18.3325V9.97086H16.3552ZM17.8353 5.83707C17.0124 4.93854 16.472 3.77733 16.3552 2.49354V1.96655H15.2182C15.5044 3.59819 16.4807 4.99216 17.8353 5.83707ZM6.00627 20.4179C5.54652 19.8155 5.298 19.0784 5.29912 18.3205C5.29912 16.4074 6.85093 14.8562 8.7655 14.8562C9.12224 14.856 9.47688 14.9108 9.81696 15.0185V10.8295C9.41955 10.7751 9.01851 10.7519 8.61765 10.7604V14.0209C8.27742 13.9131 7.92258 13.8584 7.56567 13.8587C5.65119 13.8587 4.09946 15.4097 4.09946 17.3231C4.09946 18.676 4.87506 19.8473 6.00627 20.4179Z" fill="#FF004F"/>
<path d="M15.1549 8.97328C16.7655 10.1236 18.7377 10.8004 20.868 10.8004V7.57517C19.6789 7.32198 18.6262 6.70095 17.8347 5.83707C16.48 4.99207 15.5039 3.5981 15.2177 1.96655H12.2312V18.3323C12.2244 20.2403 10.6753 21.7851 8.76482 21.7851C7.63913 21.7851 6.63896 21.2488 6.0056 20.4178C4.87456 19.8473 4.09887 18.6759 4.09887 17.3232C4.09887 15.41 5.6506 13.8588 7.56508 13.8588C7.93189 13.8588 8.28543 13.9159 8.61706 14.021V10.7605C4.50568 10.8454 1.19922 14.203 1.19922 18.3324C1.19922 20.3938 2.02258 22.2625 3.35896 23.6279C4.56456 24.437 6.01586 24.909 7.57741 24.909C11.7623 24.909 15.155 21.518 15.155 17.3351L15.1549 8.97328Z" fill="black"/>
<path d="M20.8685 7.57552V6.70362C19.7962 6.70525 18.7451 6.4051 17.8353 5.8375C18.6406 6.71872 19.7011 7.32641 20.8685 7.57569M15.2181 1.9669C15.1908 1.811 15.1699 1.65406 15.1553 1.49647V0.969482H11.0317V17.3354C11.0252 19.2432 9.47604 20.788 7.56552 20.788C7.0239 20.7888 6.48969 20.6622 6.00603 20.4184C6.6394 21.2492 7.63957 21.7854 8.76526 21.7854C10.6756 21.7854 12.2249 20.2408 12.2316 18.3328V1.96698L15.2181 1.9669ZM8.61776 10.7609V9.8325C8.27318 9.7854 7.9258 9.76184 7.57802 9.76198C3.39267 9.76198 0 13.1528 0 17.3354C0 19.9578 1.33336 22.2688 3.35957 23.6282C2.02319 22.2628 1.19983 20.3941 1.19983 18.3328C1.19983 14.2034 4.50621 10.8458 8.61776 10.7609Z" fill="#00F2EA"/>
</g>
<defs>
<clipPath id="clip0_605_5358">
<rect width="22.069" height="25" fill="white" transform="translate(0 0.969482)"/>
</clipPath>
</defs>
</svg>
