<svg width="40" height="41" viewBox="0 0 40 41" fill="none" xmlns="http://www.w3.org/2000/svg">
<path d="M15.001 30.3494C14.3177 30.3494 13.751 29.7827 13.751 29.0994V22.1161L12.551 23.3161C12.0677 23.7994 11.2677 23.7994 10.7844 23.3161C10.301 22.8327 10.301 22.0327 10.7844 21.5494L14.1177 18.2161C14.4677 17.8661 15.0177 17.7494 15.4844 17.9494C15.951 18.1327 16.251 18.5994 16.251 19.0994V29.0994C16.251 29.7827 15.6844 30.3494 15.001 30.3494Z" fill="#8D29D9"/>
<path d="M18.335 23.6827C18.0184 23.6827 17.7017 23.5661 17.4517 23.3161L14.1184 19.9827C13.635 19.4994 13.635 18.6994 14.1184 18.2161C14.6017 17.7327 15.4017 17.7327 15.885 18.2161L19.2184 21.5494C19.7017 22.0327 19.7017 22.8327 19.2184 23.3161C18.9684 23.5661 18.6517 23.6827 18.335 23.6827Z" fill="#8D29D9"/>
<path d="M24.9987 38.6827H14.9987C5.9487 38.6827 2.08203 34.8161 2.08203 25.7661V15.7661C2.08203 6.71606 5.9487 2.8494 14.9987 2.8494H23.332C24.0154 2.8494 24.582 3.41606 24.582 4.0994C24.582 4.78273 24.0154 5.3494 23.332 5.3494H14.9987C7.31536 5.3494 4.58203 8.08273 4.58203 15.7661V25.7661C4.58203 33.4494 7.31536 36.1827 14.9987 36.1827H24.9987C32.682 36.1827 35.4154 33.4494 35.4154 25.7661V17.4327C35.4154 16.7494 35.982 16.1827 36.6654 16.1827C37.3487 16.1827 37.9154 16.7494 37.9154 17.4327V25.7661C37.9154 34.8161 34.0487 38.6827 24.9987 38.6827Z" fill="#8D29D9"/>
<path d="M36.6673 18.6827H30.0007C24.3007 18.6827 22.084 16.4661 22.084 10.7661V4.09941C22.084 3.59941 22.384 3.13274 22.8507 2.94941C23.3173 2.74941 23.8507 2.86607 24.2173 3.21607L37.5507 16.5494C37.9007 16.8994 38.0173 17.4494 37.8173 17.9161C37.6173 18.3827 37.1673 18.6827 36.6673 18.6827ZM24.584 7.11607V10.7661C24.584 15.0661 25.7007 16.1827 30.0007 16.1827H33.6507L24.584 7.11607Z" fill="#8D29D9"/>
</svg>
