<svg width="141" height="155" viewBox="0 0 141 155" fill="none" xmlns="http://www.w3.org/2000/svg">
<rect x="0.5" width="140" height="155" rx="18" fill="white"/>
<path opacity="0.25" d="M70.5211 117.236C101.509 117.236 126.63 111.39 126.63 104.178C126.63 96.9663 101.509 91.1201 70.5211 91.1201C39.533 91.1201 14.4121 96.9663 14.4121 104.178C14.4121 111.39 39.533 117.236 70.5211 117.236Z" fill="#042030"/>
<path d="M114.462 41.1611L70.5194 56.18L26.5324 41.1611L5.49707 71.7336L70.5194 93.9722L135.497 71.7336L114.462 41.1611Z" fill="#7B91E4"/>
<path opacity="0.45" d="M13.1621 70.4858L67.0874 91.12L48.5478 72.7587C48.5478 72.7587 18.109 65.4052 13.1621 70.4858Z" fill="#18392B"/>
<path opacity="0.45" d="M127.877 70.4858L73.9521 91.12L92.4917 72.7587C92.4472 72.7587 122.886 65.4052 127.877 70.4858Z" fill="#18392B"/>
<path d="M70.5194 93.9722L5.49707 71.7336V74.6305L70.5194 96.8691L135.497 74.6305V71.7336L70.5194 93.9722Z" fill="#E485B9"/>
<path d="M35.8916 107.342L43.4233 87.5992L67.6674 95.8886L35.8916 107.342Z" fill="#7B91E4"/>
<path opacity="0.45" d="M37.9863 101.638L67.6675 95.8886L43.4234 87.5992L37.9863 101.638Z" fill="#7B91E4"/>
<path d="M70.5196 94.8635L35.8916 107.342L38.4764 110.061L70.5196 98.6517L102.518 110.061L105.148 107.342L70.5196 94.8635Z" fill="#E485B9"/>
<path d="M105.148 107.342L97.5712 87.5992L73.3271 95.8886L105.148 107.342Z" fill="#7B91E4"/>
<path opacity="0.45" d="M103.008 101.638L73.3271 95.8886L97.5712 87.5992L103.008 101.638Z" fill="#7B91E4"/>
<path d="M70.5212 98.6516C71.8257 98.6516 72.8832 97.5941 72.8832 96.2896C72.8832 94.9851 71.8257 93.9276 70.5212 93.9276C69.2167 93.9276 68.1592 94.9851 68.1592 96.2896C68.1592 97.5941 69.2167 98.6516 70.5212 98.6516Z" fill="white" fill-opacity="0.5"/>
<path d="M112.592 41.1611L70.5212 62.1073L28.4506 41.1611C26.5342 43.7014 11.1143 69.4162 11.1143 69.4162C11.2925 69.4162 11.4262 69.4608 11.6045 69.4608C50.2881 73.338 61.0286 85.5046 64.5939 88.446C68.1592 91.432 70.5658 91.12 70.5658 91.12C70.5658 91.12 72.9723 91.432 76.5376 88.446C80.103 85.5046 90.8434 73.338 129.527 69.4608C129.705 69.4608 129.839 69.4162 130.017 69.4162C129.928 69.4162 114.464 43.746 112.592 41.1611Z" fill="#94DBEB"/>
<path d="M129.927 69.4161C129.749 69.4161 129.615 69.4607 129.437 69.4607C90.7536 73.338 80.0131 85.5046 76.4478 88.446C72.8825 91.4319 70.4759 91.1199 70.4759 91.1199C70.4759 91.1199 68.0693 91.4319 64.504 88.446C60.9387 85.5046 50.1982 73.338 11.5146 69.4607C11.3364 69.4607 11.2027 69.4161 11.0244 69.4161C10.7124 69.9064 11.0244 70.2629 11.0244 70.2629C50.1091 74.051 60.493 86.2622 64.0583 89.2482C67.6236 92.1895 70.4313 91.9667 70.4313 91.9667C70.4313 91.9667 73.239 92.1895 76.8043 89.2482C80.3696 86.3068 90.7536 74.0956 129.838 70.2629C129.927 70.2629 130.239 69.9064 129.927 69.4161Z" fill="#D0DED8"/>
<path d="M110.987 38.7099C89.4612 33.5402 70.476 51.2331 70.476 51.2331C70.476 51.2331 51.4907 33.5402 29.9651 38.7099C29.9651 38.7099 23.8596 48.0688 15.4365 63.979C15.4365 63.979 57.8191 68.7476 70.476 86.5296C83.1328 68.7476 125.515 63.979 125.515 63.979C117.092 48.0688 110.987 38.7099 110.987 38.7099Z" fill="#F5EFFB"/>
<path d="M125.516 63.979C125.516 63.979 83.1338 68.7476 70.477 86.5296C57.8647 68.7476 15.4821 63.979 15.4821 63.979C15.4821 63.979 15.4821 65.4051 13.1201 68.2128C13.1201 68.2128 51.5809 70.9759 65.5747 86.9307C68.8726 90.6742 70.477 90.2286 70.477 90.2286C70.477 90.2286 72.1259 90.6742 75.3793 86.9307C89.3286 70.9759 127.834 68.2128 127.834 68.2128C125.516 65.3606 125.516 63.979 125.516 63.979Z" fill="#D0DED8"/>
<path d="M108.58 40.5817C108.58 40.5817 92.4912 36.4816 70.4755 53.5505C48.5043 36.5261 32.3713 40.5817 32.3713 40.5817L21.4971 61.7061C54.5653 63.979 70.4755 80.6914 70.4755 80.6914C70.4755 80.6914 86.3857 63.979 119.454 61.7061L108.58 40.5817ZM70.52 78.6859C70.52 78.6859 55.6349 63.4442 24.0819 60.4583L33.218 41.473C33.218 41.473 49.0391 38.3979 70.52 54.5309C92.001 38.3979 107.822 41.473 107.822 41.473L116.958 60.4583C85.4052 63.4442 70.52 78.6859 70.52 78.6859Z" fill="#7B91E4"/>
<path d="M74.5762 69.458C80.5183 65.0756 99.0877 55.3778 111.566 56.7148" stroke="#EFCC8F" stroke-width="1.33699" stroke-linecap="round"/>
<path d="M74.5762 57.1604C79.8499 53.0311 93.5614 44.9406 106.218 45.6125" stroke="#EFCC8F" stroke-width="1.33699" stroke-linecap="round"/>
<path d="M74.5762 63.3997C80.2955 58.9528 95.1658 50.24 108.892 50.9636" stroke="#EFCC8F" stroke-width="1.33699" stroke-linecap="round"/>
<path d="M67.001 69.458C61.0588 65.0756 42.4895 55.3778 30.0109 56.7148" stroke="#EFCC8F" stroke-width="1.33699" stroke-linecap="round"/>
<path d="M67.001 57.1604C61.7273 53.0311 48.0157 44.9406 35.3589 45.6125" stroke="#EFCC8F" stroke-width="1.33699" stroke-linecap="round"/>
<path d="M67.001 63.3997C61.2816 58.9528 46.4113 50.24 32.6849 50.9636" stroke="#EFCC8F" stroke-width="1.33699" stroke-linecap="round"/>
<path d="M70.5197 51.2331C70.5197 51.2331 70.9654 49.6732 71.8122 50.1189C71.8122 50.1189 71.2774 75.388 72.1687 85.2372C72.3915 87.6883 74.5307 91.0308 75.3775 92.2786H74.2633L73.9514 93.3037C73.9514 93.3037 70.6534 87.7329 70.5197 85.5491C69.8513 75.7445 70.2078 53.5951 70.5197 51.2331Z" fill="#54DAF5"/>
</svg>
